<svg id="_x31_" enable-background="new 0 0 24 24" height="512" viewBox="0 0 24 24" width="512" xmlns="http://www.w3.org/2000/svg"><g><g><path d="m8.56 24.011c-.276 0-.5-.224-.5-.5v-.87c0-.309-.094-.606-.271-.86l-1.007-1.437c-.587-.84-1.084-1.723-1.477-2.623-.495-1.133-1.563-3.273-3.167-4.878-.055-.055-.096-.122-.121-.195-.022-.065-.201-.654.214-1.23.444-.615 1.373-.928 2.76-.928 1.296 0 2.32.836 3 1.629v-9.13c0-1.103.897-2 2-2 .412 0 .794.125 1.112.339.274-.779 1.017-1.339 1.888-1.339s1.614.56 1.888 1.339c.318-.214.701-.339 1.112-.339 1.103 0 2 .897 2 2v2.269c.294-.171.636-.269 1-.269 1.152 0 2.049.897 2.049 2v7l-.091 1.942c-.101 2.136-.916 4.21-2.296 5.841-.22.26-.342.592-.342.933v.805c0 .276-.224.5-.5.5s-.5-.224-.5-.5v-.805c0-.577.206-1.138.578-1.579 1.239-1.463 1.971-3.324 2.061-5.241l.09-1.919v-6.977c0-.552-.449-1-1-1-.6 0-1.049.448-1.049 1v6c0 .276-.224.5-.5.5s-.5-.224-.5-.5v-10c0-.552-.449-1-1-1s-1 .448-1 1v10c0 .276-.224.5-.5.5s-.5-.224-.5-.5v-11c0-.552-.449-1-1-1s-1 .448-1 1v11c0 .276-.224.5-.5.5s-.5-.224-.5-.5v-10c0-.552-.449-1-1-1s-1 .448-1 1v10.75c0 .231-.16.433-.385.486s-.458-.056-.562-.264c-.013-.024-1.258-2.473-3.053-2.473-1.404 0-1.825.351-1.94.501-.074.096-.091.193-.092.262 1.572 1.616 2.639 3.64 3.262 5.068.367.841.831 1.665 1.38 2.45l1.007 1.437c.295.423.452.919.452 1.434v.87c0 .277-.224.501-.5.501z"/></g></g></svg>